<?xml version="1.0" standalone="no"?><!DOCTYPE svg PUBLIC "-//W3C//DTD SVG 1.1//EN" "http://www.w3.org/Graphics/SVG/1.1/DTD/svg11.dtd"><svg t="1709112608027" class="icon" viewBox="0 0 1024 1024" version="1.1" xmlns="http://www.w3.org/2000/svg" p-id="3258" xmlns:xlink="http://www.w3.org/1999/xlink" width="200" height="200"><path d="M319.4112 535.10656h428.032c23.552 0 43.008 18.944 43.008 43.008v214.016c0 23.552-18.944 43.008-43.008 43.008h-428.032c-23.552 0-43.008-18.944-43.008-43.008v-214.016c0-23.552 19.456-43.008 43.008-43.008z" fill="#CAE4FF" p-id="3259"></path><path d="M882.6112 224.32256h-31.232c14.848-22.528 22.016-49.152 20.48-75.776-3.072-29.184-19.968-55.296-45.568-70.656-31.744-18.944-70.144-24.064-105.472-13.312-78.336 25.6-146.432 75.264-194.56 141.824-48.128-66.56-116.224-116.224-194.56-141.824-35.328-10.752-73.728-6.144-105.472 13.312-25.6 14.848-42.496 40.96-45.568 70.656-1.536 26.624 5.632 53.248 20.48 75.776h-31.232c-47.104 0-84.992 38.4-84.992 84.992v109.568c0 37.376 24.576 70.144 59.904 80.896-3.584 9.216-5.12 18.944-5.12 28.672v329.216c0 47.104 38.4 84.992 84.992 84.992h603.136c47.104 0 84.992-38.4 84.992-84.992v-329.216c0-9.728-1.536-19.456-5.12-28.672 35.328-11.264 59.904-44.032 59.904-80.896v-109.568c0-46.592-37.888-84.48-84.992-84.992m-54.784 658.944h-270.848v-378.368h271.36c13.312 0 24.576 11.264 24.576 24.576v329.216c-0.512 13.824-11.264 24.576-25.088 24.576m-237.568-658.432c38.4-46.592 88.576-81.408 145.92-100.352 18.944-6.656 39.936-4.608 57.344 5.12 9.728 4.608 16.896 14.336 18.432 25.088-3.584 26.624-16.384 51.712-36.352 70.144h-185.344z m316.928 84.992v109.568c0 13.312-10.752 24.576-24.576 24.576h-326.144v-159.232h326.144c13.824 0.512 24.576 11.264 24.576 25.088m-411.136 194.56v378.368h-271.36c-13.312 0-24.576-10.752-24.576-24.576v-329.216c0-13.312 10.752-24.576 24.576-24.576h271.36z m-254.976-350.208c1.536-10.752 8.192-20.48 18.432-25.088 17.408-9.728 38.4-11.776 57.344-5.12 56.832 18.944 107.52 53.76 145.408 100.352h-185.344c-19.968-18.432-32.768-43.52-35.84-70.144m-95.744 155.136c0-13.312 10.752-24.576 24.576-24.576h326.144v158.72h-326.144c-13.312 0-24.576-10.752-24.576-24.576v-109.568z" fill="#0972E7" p-id="3260"></path></svg>