<?xml version="1.0" standalone="no"?><!DOCTYPE svg PUBLIC "-//W3C//DTD SVG 1.1//EN" "http://www.w3.org/Graphics/SVG/1.1/DTD/svg11.dtd"><svg t="1709194017096" class="icon" viewBox="0 0 1024 1024" version="1.1" xmlns="http://www.w3.org/2000/svg" p-id="8934" xmlns:xlink="http://www.w3.org/1999/xlink" width="200" height="200"><path d="M512 506.345805m-506.345805 0a506.345805 506.345805 0 1 0 1012.69161 0 506.345805 506.345805 0 1 0-1012.69161 0Z" fill="#FFE3E3" p-id="8935"></path><path d="M22.532388 168.781935m111.227296 0l756.480632 0q111.227295 0 111.227296 111.227295l0 486.429537q0 111.227295-111.227296 111.227295l-756.480632 0q-111.227295 0-111.227296-111.227295l0-486.429537q0-111.227295 111.227296-111.227295Z" fill="#FFFFFF" p-id="8936"></path><path d="M890.240316 185.660129A94.686666 94.686666 0 0 1 984.589418 280.00923v486.429537A94.686666 94.686666 0 0 1 890.240316 860.787869H133.759684A94.686666 94.686666 0 0 1 39.410582 766.438767V280.00923A94.686666 94.686666 0 0 1 133.759684 185.660129h756.480632m0-33.756387H133.759684A128.105489 128.105489 0 0 0 5.654195 280.00923v486.429537A128.105489 128.105489 0 0 0 133.759684 894.544256h756.480632A128.105489 128.105489 0 0 0 1018.345805 766.438767V280.00923A128.105489 128.105489 0 0 0 890.240316 151.903742zM731.416516 1024H289.714192a16.878194 16.878194 0 1 1 0-33.756387H731.416516a16.878194 16.878194 0 0 1 0 33.756387z" fill="#F86560" p-id="8937"></path><path d="M106.923356 253.172903m64.137135 0l597.48805 0q64.137135 0 64.137136 64.137135l0 411.827921q0 64.137135-64.137136 64.137136l-597.48805 0q-64.137135 0-64.137135-64.137136l0-411.827921q0-64.137135 64.137135-64.137135Z" fill="#FFFFFF" p-id="8938"></path><path d="M768.548541 810.153288H171.060491A81.015329 81.015329 0 0 1 90.045162 729.137959V317.310038A81.015329 81.015329 0 0 1 171.060491 236.294709h597.48805a81.015329 81.015329 0 0 1 81.015329 81.015329v411.827921a81.015329 81.015329 0 0 1-81.015329 81.015329zM171.060491 270.051096A47.427724 47.427724 0 0 0 123.801549 317.310038v411.827921A47.427724 47.427724 0 0 0 171.060491 776.396901h597.48805a47.427724 47.427724 0 0 0 47.258942-47.258942V317.310038a47.427724 47.427724 0 0 0-47.258942-47.258942z" fill="#F86560" p-id="8939"></path><path d="M917.076644 405.076644m-33.756387 0a33.756387 33.756387 0 1 0 67.512774 0 33.756387 33.756387 0 1 0-67.512774 0Z" fill="#F86560" p-id="8940"></path><path d="M883.320257 507.696061h67.512774v33.756387h-67.512774zM883.320257 573.858579h67.512774v33.756387h-67.512774z" fill="#F86560" p-id="8941"></path><path d="M347.943959 624.49316a171.988792 171.988792 0 0 0 243.214769 0" fill="#FFFFFF" p-id="8942"></path><path d="M469.635734 692.005934a188.698203 188.698203 0 0 1-133.675292-55.360475A16.878194 16.878194 0 0 1 360.096258 612.509642a155.110598 155.110598 0 0 0 219.416516 0 16.878194 16.878194 0 0 1 24.135817 0 16.878194 16.878194 0 0 1 0 23.629471A189.204549 189.204549 0 0 1 469.635734 692.005934zM457.145871 118.147355a16.878194 16.878194 0 0 1-12.658645-4.894677l-75.951871-75.95187A16.878194 16.878194 0 0 1 393.852645 13.333773l75.951871 75.951871a16.878194 16.878194 0 0 1 0 23.967034 16.878194 16.878194 0 0 1-12.658645 4.894677zM566.854129 118.147355a16.878194 16.878194 0 0 1-11.983517-4.894677 16.878194 16.878194 0 0 1 0-23.967034L630.147355 13.333773a16.878194 16.878194 0 1 1 23.967034 23.967035L579.512774 113.252678a16.878194 16.878194 0 0 1-12.658645 4.894677z" fill="#F86560" p-id="8943"></path></svg>