<?xml version="1.0" standalone="no"?><!DOCTYPE svg PUBLIC "-//W3C//DTD SVG 1.1//EN" "http://www.w3.org/Graphics/SVG/1.1/DTD/svg11.dtd"><svg t="1709112220255" class="icon" viewBox="0 0 1024 1024" version="1.1" xmlns="http://www.w3.org/2000/svg" p-id="9131" xmlns:xlink="http://www.w3.org/1999/xlink" width="200" height="200"><path d="M0 0h1024v1024H0V0z" fill="#202425" opacity=".01" p-id="9132"></path><path d="M34.133333 158.754133a68.266667 68.266667 0 0 1 87.04-65.6384L512 204.8v750.933333L133.154133 847.496533A136.533333 136.533333 0 0 1 34.133333 716.219733V158.72z" fill="#FF7744" p-id="9133"></path><path d="M989.866667 158.754133a68.266667 68.266667 0 0 0-87.04-65.6384L512 204.8v750.933333l378.845867-108.2368A136.533333 136.533333 0 0 0 989.866667 716.219733V158.72z" fill="#FFAA44" p-id="9134"></path><path d="M217.224533 359.936a51.2 51.2 0 0 0-24.849066 99.328l136.533333 34.133333a51.2 51.2 0 1 0 24.849067-99.328l-136.533334-34.133333z m589.550934 0a51.2 51.2 0 1 1 24.849066 99.328l-136.533333 34.133333a51.2 51.2 0 1 1-24.849067-99.328l136.533334-34.133333zM155.136 601.975467a51.2 51.2 0 0 1 62.088533-37.239467l136.533334 34.133333a51.2 51.2 0 1 1-24.849067 99.328l-136.533333-34.133333a51.2 51.2 0 0 1-37.239467-62.088533z m651.639467-37.239467a51.2 51.2 0 1 1 24.849066 99.328l-136.533333 34.133333a51.2 51.2 0 1 1-24.849067-99.328l136.533334-34.133333z" fill="#FFFFFF" p-id="9135"></path></svg>