<?xml version="1.0" standalone="no"?><!DOCTYPE svg PUBLIC "-//W3C//DTD SVG 1.1//EN" "http://www.w3.org/Graphics/SVG/1.1/DTD/svg11.dtd"><svg t="1709112015833" class="icon" viewBox="0 0 1024 1024" version="1.1" xmlns="http://www.w3.org/2000/svg" p-id="3462" xmlns:xlink="http://www.w3.org/1999/xlink" width="200" height="200"><path d="M0 0m170.666667 0l682.666666 0q170.666667 0 170.666667 170.666667l0 682.666666q0 170.666667-170.666667 170.666667l-682.666666 0q-170.666667 0-170.666667-170.666667l0-682.666666q0-170.666667 170.666667-170.666667Z" fill="#0a9ae6" p-id="3463"></path><path d="M315.733333 281.6h392.533334a34.133333 34.133333 0 0 1 34.133333 34.133333v430.506667a34.133333 34.133333 0 0 1-44.919467 32.392533L522.786133 720.384a34.133333 34.133333 0 0 0-21.572266 0l-174.6944 58.231467a34.133333 34.133333 0 0 1-44.919467-32.392534V315.733333a34.133333 34.133333 0 0 1 34.133333-34.133333z m89.6 136.533333a21.333333 21.333333 0 0 0 0 42.666667h213.333334a21.333333 21.333333 0 0 0 0-42.666667h-213.333334z m0 119.466667a21.333333 21.333333 0 0 0 0 42.666667h213.333334a21.333333 21.333333 0 0 0 0-42.666667h-213.333334z" fill="#FFFFFF" p-id="3464"></path></svg>